<svg width="1400" height="264" viewBox="0 0 1400 264" fill="none" xmlns="http://www.w3.org/2000/svg">
<path fill-rule="evenodd" clip-rule="evenodd" d="M523.187 104.707C523.264 105.762 523.304 106.827 523.304 107.901V186.979C523.304 210.645 504.119 229.829 480.454 229.829H365.893C342.228 229.829 323.043 210.645 323.043 186.979V107.901C323.043 84.2353 342.228 65.0508 365.893 65.0508H480.454C483.794 65.0508 487.044 65.4328 490.164 66.1555C487.677 70.2093 486.243 74.9787 486.243 80.083C486.243 81.6454 486.377 83.1764 486.635 84.665C484.663 84.1417 482.591 83.8629 480.454 83.8629H365.893C352.618 83.8629 341.856 94.6249 341.856 107.901V186.979C341.856 200.255 352.618 211.017 365.893 211.017H480.454C493.73 211.017 504.492 200.255 504.492 186.979V107.901C504.492 107.04 504.447 106.191 504.359 105.354C507.045 106.263 509.923 106.756 512.917 106.756C516.556 106.756 520.026 106.027 523.187 104.707Z" fill="#ACB1C6"/>
<path d="M410.096 102.934C413.646 106.126 413.933 111.54 410.742 115.09L384.926 143.774C383.348 145.531 381.125 146.571 378.759 146.607C376.392 146.643 374.133 145.746 372.448 144.097L358.07 129.755C354.699 126.384 354.699 120.934 358.07 117.599C361.44 114.265 366.89 114.229 370.225 117.599L378.149 125.524L397.905 103.58C401.097 100.03 406.511 99.7433 410.061 102.934H410.096ZM425.12 123.659C425.12 117.313 430.247 112.185 436.594 112.185H479.83C486.177 112.185 491.304 117.313 491.304 123.659C491.304 130.006 486.177 135.133 479.83 135.133H436.594C430.247 135.133 425.12 130.006 425.12 123.659Z" fill="#27D39F"/>
<path d="M413.646 165.107C407.299 165.107 402.172 170.234 402.172 176.58C402.172 182.927 407.299 188.054 413.646 188.054H479.83C486.177 188.054 491.304 182.927 491.304 176.58C491.304 170.234 486.177 165.107 479.83 165.107H413.646Z" fill="#ACB1C6"/>
<path d="M384.94 164.411C381.712 161.183 377.335 159.37 372.77 159.37C368.206 159.37 363.828 161.183 360.6 164.411C357.373 167.638 355.56 172.016 355.56 176.58C355.56 181.145 357.373 185.523 360.6 188.75C363.828 191.978 368.206 193.791 372.77 193.791C377.335 193.791 381.712 191.978 384.94 188.75C388.168 185.523 389.981 181.145 389.981 176.58C389.981 172.016 388.168 167.638 384.94 164.411Z" fill="#ACB1C6"/>
<path d="M525.087 67.9135C521.859 64.6858 517.481 62.8726 512.917 62.8726C508.352 62.8726 503.975 64.6858 500.747 67.9135C497.519 71.1411 495.706 75.5187 495.706 80.0833C495.706 84.6478 497.519 89.0254 500.747 92.2531C503.975 95.4807 508.352 97.294 512.917 97.294C517.481 97.294 521.859 95.4807 525.087 92.2531C528.314 89.0254 530.127 84.6478 530.127 80.0833C530.127 75.5187 528.314 71.1411 525.087 67.9135Z" fill="#27D39F"/>
<path d="M67.8846 221.313C49.0997 221.313 33.6122 216.716 21.422 207.524C9.23187 198.331 2.23751 186.141 0.438965 170.953H32.5131C34.1118 177.748 37.9087 183.643 43.9039 188.639C49.8991 193.435 57.7927 195.833 67.5848 195.833C77.1771 195.833 84.1714 193.835 88.5679 189.838C92.9643 185.841 95.1625 181.245 95.1625 176.049C95.1625 168.455 92.065 163.359 85.87 160.762C79.8749 157.964 71.4817 155.466 60.6904 153.268C52.2971 151.469 43.9039 149.071 35.5107 146.073C27.3173 143.076 20.4228 138.879 14.8274 133.484C9.43171 127.888 6.73389 120.394 6.73389 111.002C6.73389 98.0122 11.7299 87.2209 21.7218 78.6278C31.7137 69.8349 45.7024 65.4385 63.6879 65.4385C80.2745 65.4385 93.6637 69.4353 103.856 77.4288C114.247 85.4224 120.342 96.7132 122.141 111.301H91.5655C90.5663 104.907 87.5687 99.9107 82.5727 96.3136C77.7766 92.7165 71.2818 90.9179 63.0884 90.9179C55.0949 90.9179 48.8999 92.6165 44.5034 96.0138C40.107 99.2112 37.9087 103.408 37.9087 108.604C37.9087 113.799 40.9063 117.896 46.9015 120.894C53.0965 123.891 61.1899 126.589 71.1819 128.987C81.1738 131.185 90.3664 133.783 98.7597 136.781C107.353 139.579 114.247 143.775 119.443 149.371C124.639 154.966 127.237 163.16 127.237 173.951C127.436 187.54 122.141 198.831 111.349 207.824C100.758 216.816 86.2697 221.313 67.8846 221.313Z" fill="#27D39F"/>
<path d="M220.671 221.313C206.082 221.313 192.993 218.015 181.402 211.421C170.012 204.826 161.019 195.733 154.424 184.143C148.029 172.352 144.832 158.763 144.832 143.376C144.832 127.988 148.029 114.499 154.424 102.908C161.019 91.1178 170.012 81.9252 181.402 75.3305C192.993 68.7358 206.082 65.4385 220.671 65.4385C239.056 65.4385 254.443 70.2346 266.833 79.8269C279.423 89.4191 287.517 102.409 291.114 118.795H257.841C255.842 110.602 251.446 104.207 244.651 99.6109C237.857 95.0146 229.863 92.7165 220.671 92.7165C212.877 92.7165 205.683 94.7149 199.088 98.7116C192.493 102.509 187.198 108.204 183.201 115.798C179.204 123.192 177.206 132.384 177.206 143.376C177.206 154.367 179.204 163.659 183.201 171.253C187.198 178.647 192.493 184.343 199.088 188.339C205.683 192.336 212.877 194.334 220.671 194.334C229.863 194.334 237.857 192.036 244.651 187.44C251.446 182.844 255.842 176.349 257.841 167.956H291.114C287.717 183.943 279.723 196.832 267.133 206.625C254.543 216.417 239.056 221.313 220.671 221.313Z" fill="#27D39F"/>
<path d="M561.762 263.195V69.0356H596.161L599.458 92.117C604.254 85.1226 610.849 78.9276 619.242 73.5319C627.635 68.1363 638.427 65.4385 651.616 65.4385C666.005 65.4385 678.694 68.8357 689.685 75.6302C700.676 82.4248 709.27 91.7173 715.465 103.508C721.859 115.298 725.057 128.687 725.057 143.675C725.057 158.663 721.859 172.052 715.465 183.843C709.27 195.434 700.676 204.626 689.685 211.421C678.694 218.015 665.905 221.313 651.316 221.313C639.726 221.313 629.434 219.015 620.441 214.418C611.648 209.822 604.654 203.327 599.458 194.934V263.195H561.762ZM645.921 193.735C659.51 193.735 670.701 189.139 679.494 179.946C688.287 170.554 692.683 158.364 692.683 143.376C692.683 133.584 690.685 124.891 686.688 117.297C682.691 109.703 677.196 103.808 670.201 99.6109C663.207 95.2145 655.113 93.0162 645.921 93.0162C632.332 93.0162 621.141 97.7124 612.348 107.105C603.755 116.497 599.458 128.588 599.458 143.376C599.458 158.364 603.755 170.554 612.348 179.946C621.141 189.139 632.332 193.735 645.921 193.735Z" fill="#27D39F"/>
<path d="M821.17 221.313C806.581 221.313 793.592 218.115 782.201 211.72C771.01 205.126 762.217 196.033 755.822 184.442C749.428 172.852 746.23 159.363 746.23 143.975C746.23 128.388 749.328 114.699 755.523 102.908C761.917 91.1178 770.71 81.9252 781.901 75.3305C793.292 68.7358 806.481 65.4385 821.469 65.4385C836.058 65.4385 848.747 68.7358 859.539 75.3305C870.33 81.7253 878.723 90.3184 884.718 101.11C890.714 111.901 893.711 123.791 893.711 136.781C893.711 138.779 893.611 140.978 893.411 143.376C893.411 145.574 893.312 148.072 893.112 150.87H777.405C778.404 165.258 783.1 176.249 791.494 183.843C800.087 191.237 809.979 194.934 821.17 194.934C830.162 194.934 837.656 192.936 843.652 188.939C849.847 184.742 854.443 179.147 857.44 172.152H889.215C885.218 186.141 877.224 197.832 865.234 207.224C853.444 216.617 838.755 221.313 821.17 221.313ZM821.17 91.5174C810.578 91.5174 801.186 94.7148 792.992 101.11C784.799 107.305 779.803 116.697 778.005 129.287H861.937C861.337 117.696 857.241 108.504 849.647 101.709C842.053 94.9147 832.56 91.5174 821.17 91.5174Z" fill="#27D39F"/>
<path d="M986.395 219.864C971.207 219.864 957.818 216.567 946.227 209.972C934.636 203.377 925.444 194.185 918.649 182.394C912.055 170.604 908.757 157.115 908.757 141.927C908.757 126.739 912.055 113.25 918.649 101.46C925.444 89.6692 934.636 80.4766 946.227 73.8819C957.818 67.2872 971.207 63.9899 986.395 63.9899C1005.38 63.9899 1021.37 68.9859 1034.36 78.9778C1047.35 88.7699 1055.64 102.359 1059.24 119.745H1018.77C1016.77 112.551 1012.77 106.955 1006.78 102.958C1000.98 98.7618 994.089 96.6635 986.095 96.6635C975.504 96.6635 966.511 100.66 959.117 108.654C951.723 116.647 948.026 127.738 948.026 141.927C948.026 156.116 951.723 167.207 959.117 175.2C966.511 183.194 975.504 187.191 986.095 187.191C994.089 187.191 1000.98 185.192 1006.78 181.195C1012.77 177.199 1016.77 171.503 1018.77 164.109H1059.24C1055.64 180.896 1047.35 194.385 1034.36 204.576C1021.37 214.768 1005.38 219.864 986.395 219.864Z" fill="#ACB1C6"/>
<path d="M1093.29 216.267V33.4544H1131.66V216.267H1093.29Z" fill="#ACB1C6"/>
<path d="M1191.55 44.5056C1184.55 44.5056 1178.76 42.4073 1174.16 38.2107C1169.77 34.0141 1167.57 28.7184 1167.57 22.3235C1167.57 15.9287 1169.77 10.7329 1174.16 6.73607C1178.76 2.53947 1184.55 0.441162 1191.55 0.441162C1198.54 0.441162 1204.24 2.53947 1208.63 6.73607C1213.23 10.7329 1215.53 15.9287 1215.53 22.3235C1215.53 28.7184 1213.23 34.0141 1208.63 38.2107C1204.24 42.4073 1198.54 44.5056 1191.55 44.5056ZM1172.36 216.267V67.587H1210.73V216.267H1172.36Z" fill="#ACB1C6"/>
<path d="M1360.87 262.166V194.984C1356.07 201.579 1349.68 207.374 1341.68 212.37C1333.89 217.366 1323.7 219.864 1311.11 219.864C1297.12 219.864 1284.63 216.467 1273.64 209.672C1262.65 202.878 1253.95 193.585 1247.56 181.795C1241.16 170.004 1237.97 156.615 1237.97 141.627C1237.97 126.639 1241.16 113.35 1247.56 101.759C1253.95 89.9689 1262.65 80.7763 1273.64 74.1817C1284.63 67.3871 1297.12 63.9899 1311.11 63.9899C1322.3 63.9899 1332.09 66.0882 1340.48 70.2848C1348.88 74.4814 1355.67 80.3767 1360.87 87.9705L1365.06 67.587H1399.24V262.166H1360.87ZM1319.2 186.291C1331.59 186.291 1341.68 182.195 1349.48 174.001C1357.47 165.608 1361.47 154.917 1361.47 141.927C1361.47 128.938 1357.47 118.346 1349.48 110.153C1341.68 101.759 1331.59 97.5628 1319.2 97.5628C1307.01 97.5628 1296.92 101.66 1288.93 109.853C1280.93 118.046 1276.93 128.638 1276.93 141.627C1276.93 154.617 1280.93 165.308 1288.93 173.701C1296.92 182.095 1307.01 186.291 1319.2 186.291Z" fill="#ACB1C6"/>
</svg>
